<svg xmlns="http://www.w3.org/2000/svg" xmlns:xlink="http://www.w3.org/1999/xlink" x="0" y="0" width="662" height="507.79998779296875" style="
        width:662px;
        height:507.79998779296875px;
        background: transparent;
        fill: none;
">
        
        
        <svg xmlns="http://www.w3.org/2000/svg" class="role-diagram-draw-area"><g class="shapes-region" style="stroke: black; fill: none;"><g class="composite-shape"><path class="real" d=" M586.4,245.19 L454.53,473.6 L190.78,473.6 L58.9,245.19 L190.78,16.78 L454.53,16.78 Z" style="stroke-width: 1px; stroke: rgb(224, 224, 224); fill: rgb(74, 74, 74); fill-opacity: 1;"/></g><g class="composite-shape"><path class="real" d=" M508.83,245.19 L415.74,406.42 L229.56,406.42 L136.48,245.19 L229.56,83.96 L415.74,83.96 Z" style="stroke-width: 1px; stroke: rgb(224, 224, 224); fill: rgb(155, 110, 27); fill-opacity: 1;"/></g><g class="composite-shape"><path class="real" d=" M423.5,241.31 L371.14,332 L266.41,332 L214.05,241.31 L266.41,150.62 L371.14,150.62 Z" style="stroke-width: 1px; stroke: rgb(224, 224, 224); fill: rgb(176, 50, 76); fill-opacity: 1;"/></g><g class="grouped-shape"><g class="composite-shape"><path class="real" d=" M446.67,136.59 L469.94,176.89 L443.07,192.41 L419.8,152.1 Z" style="stroke-width: 1px; stroke: rgb(224, 224, 224); fill: rgb(245, 166, 35); fill-opacity: 1;"/></g></g><g class="grouped-shape"><g class="composite-shape"><path class="real" d=" M183.02,166.84 L206.29,126.53 L233.17,142.05 L209.89,182.35 Z" style="stroke-width: 1px; stroke: rgb(224, 224, 224); fill: rgb(245, 166, 35); fill-opacity: 1;"/></g></g><g class="grouped-shape"><g class="composite-shape"><path class="real" d=" M190.78,338.28 L167.51,297.97 L194.38,282.45 L217.65,322.76 Z" style="stroke-width: 1px; stroke: rgb(224, 224, 224); fill: rgb(245, 166, 35); fill-opacity: 1;"/></g></g><g class="grouped-shape"><g class="composite-shape"><path class="real" d=" M477.8,297.97 L454.53,338.28 L427.65,322.76 L450.93,282.45 Z" style="stroke-width: 1px; stroke: rgb(224, 224, 224); fill: rgb(245, 166, 35); fill-opacity: 1;"/></g></g><g class="composite-shape"><path class="real" d=" M104.79,198.07 C101.72,196.3 100.67,192.37 102.44,189.31 L121.01,157.13 C122.78,154.07 126.71,153.02 129.77,154.79 L151.99,167.62 C151.99,167.62 151.99,167.62 151.99,167.62 L127,210.9 C127,210.9 127,210.9 127,210.9 Z" style="stroke-width: 1px; stroke: rgb(224, 224, 224); fill: rgb(155, 155, 155); fill-opacity: 1;"/></g><g class="composite-shape"><path class="real" d=" M142.03,139.79 C138.96,138.02 137.91,134.1 139.68,131.03 L158.26,98.86 C160.03,95.79 163.95,94.74 167.02,96.51 L189.24,109.34 C189.24,109.34 189.24,109.34 189.24,109.34 L164.25,152.62 C164.25,152.62 164.25,152.62 164.25,152.62 Z" style="stroke-width: 1px; stroke: rgb(224, 224, 224); fill: rgb(155, 155, 155); fill-opacity: 1;"/></g><g class="composite-shape"><path class="real" d=" M179.1,89.99 C176.03,88.21 174.98,84.29 176.75,81.22 L195.33,49.05 C197.1,45.99 201.02,44.93 204.09,46.71 L226.31,59.53 C226.31,59.53 226.31,59.53 226.31,59.53 L201.32,102.81 C201.32,102.81 201.32,102.81 201.32,102.81 Z" style="stroke-width: 1px; stroke: rgb(224, 224, 224); fill: rgb(155, 155, 155); fill-opacity: 1;"/></g><g class="composite-shape"><path class="real" d=" M487.76,108.76 C490.83,106.99 494.75,108.04 496.52,111.11 L515.09,143.28 C516.86,146.35 515.81,150.27 512.75,152.04 L490.53,164.87 C490.53,164.87 490.53,164.87 490.53,164.87 L465.54,121.59 C465.54,121.59 465.54,121.59 465.54,121.59 Z" style="stroke-width: 1px; stroke: rgb(224, 224, 224); fill: rgb(155, 155, 155); fill-opacity: 1;"/></g><g class="composite-shape"><path class="real" d=" M129.77,331.8 C126.71,333.58 122.78,332.52 121.01,329.46 L102.44,297.29 C100.67,294.22 101.72,290.3 104.79,288.52 L127,275.7 C127,275.7 127,275.7 127,275.7 L151.99,318.98 C151.99,318.98 151.99,318.98 151.99,318.98 Z" style="stroke-width: 1px; stroke: rgb(224, 224, 224); fill: rgb(155, 155, 155); fill-opacity: 1;"/></g><g class="composite-shape"><path class="real" d=" M157.55,381.61 C154.48,383.38 150.56,382.33 148.79,379.26 L130.21,347.09 C128.44,344.03 129.49,340.1 132.56,338.33 L154.78,325.5 C154.78,325.5 154.78,325.5 154.78,325.5 L179.77,368.78 C179.77,368.78 179.77,368.78 179.77,368.78 Z" style="stroke-width: 1px; stroke: rgb(224, 224, 224); fill: rgb(155, 155, 155); fill-opacity: 1;"/></g><g class="composite-shape"><path class="real" d=" M503.27,350.58 C506.34,352.35 507.39,356.28 505.62,359.34 L487.05,391.52 C485.28,394.58 481.35,395.63 478.28,393.86 L456.07,381.03 C456.07,381.03 456.07,381.03 456.07,381.03 L481.05,337.75 C481.05,337.75 481.05,337.75 481.05,337.75 Z" style="stroke-width: 1px; stroke: rgb(224, 224, 224); fill: rgb(155, 155, 155); fill-opacity: 1;"/></g><g class="composite-shape"><path class="real" d=" M540.52,292.31 C543.59,294.08 544.64,298 542.87,301.07 L524.29,333.24 C522.52,336.31 518.6,337.36 515.53,335.59 L493.31,322.76 C493.31,322.76 493.31,322.76 493.31,322.76 L518.3,279.48 C518.3,279.48 518.3,279.48 518.3,279.48 Z" style="stroke-width: 1px; stroke: rgb(224, 224, 224); fill: rgb(155, 155, 155); fill-opacity: 1;"/></g><g class="arrow-line"><path class="connection real" stroke-dasharray="" d="  M138.96,189.37 L194.04,147.48" style="stroke: rgb(224, 224, 224); stroke-width: 1px; fill: none; fill-opacity: 1;"/></g><g class="arrow-line"><path class="connection real" stroke-dasharray="" d="  M177.59,129.64 L194.04,147.48" style="stroke: rgb(224, 224, 224); stroke-width: 1px; fill: none; fill-opacity: 1;"/></g><g class="arrow-line"><path class="connection real" stroke-dasharray="" d="  M213.27,81.55 L194.04,147.48" style="stroke: rgb(224, 224, 224); stroke-width: 1px; fill: none; fill-opacity: 1;"/></g><g class="arrow-line"><path class="connection real" stroke-dasharray="" d="  M457.16,155.63 L479.27,144.77" style="stroke: rgb(224, 224, 224); stroke-width: 1px; fill: none; fill-opacity: 1;"/></g><g class="arrow-line"><path class="connection real" stroke-dasharray="" d="  M465.7,318.3 L506.42,301.23" style="stroke: rgb(224, 224, 224); stroke-width: 1px; fill: none; fill-opacity: 1;"/></g><g class="arrow-line"><path class="connection real" stroke-dasharray="" d="  M465.7,318.3 L470.35,357.09" style="stroke: rgb(224, 224, 224); stroke-width: 1px; fill: none; fill-opacity: 1;"/></g><g class="arrow-line"><path class="connection real" stroke-dasharray="" d="  M138.18,294.25 L179.69,317.52" style="stroke: rgb(224, 224, 224); stroke-width: 1px; fill: none; fill-opacity: 1;"/></g><g class="arrow-line"><path class="connection real" stroke-dasharray="" d="  M166.11,345.06 L179.69,317.52" style="stroke: rgb(224, 224, 224); stroke-width: 1px; fill: none; fill-opacity: 1;"/></g><g class="arrow-line"><path class="connection real" stroke-dasharray="" d="  M220.88,162.75 L249.42,179.04" style="stroke: rgb(224, 224, 224); stroke-width: 1px; fill: none; fill-opacity: 1;"/></g><g class="arrow-line"><path class="connection real" stroke-dasharray="" d="  M205.47,303.68 L240.11,286.61" style="stroke: rgb(224, 224, 224); stroke-width: 1px; fill: none; fill-opacity: 1;"/></g><g class="arrow-line"><path class="connection real" stroke-dasharray="" d="  M429.81,171.55 L393.71,191.46" style="stroke: rgb(224, 224, 224); stroke-width: 1px; fill: none; fill-opacity: 1;"/></g><g class="arrow-line"><path class="connection real" stroke-dasharray="" d="  M399.4,281.96 L439.12,303.47" style="stroke: rgb(224, 224, 224); stroke-width: 1px; fill: none; fill-opacity: 1;"/></g><g class="arrow-line"><path class="connection real" stroke-dasharray="" d="  M-0.6,58 L149.8,113.6" style="stroke: rgb(224, 224, 224); stroke-width: 1px; fill: none; fill-opacity: 1;"/></g><g class="arrow-line"><path class="connection real" stroke-dasharray="" d="  M505.8,126.4 L700.2,52.4" style="stroke: rgb(224, 224, 224); stroke-width: 1px; fill: none; fill-opacity: 1;"/></g><g class="arrow-line"><path class="connection real" stroke-dasharray="" d="  M495.6,374.8 L579,506" style="stroke: rgb(224, 224, 224); stroke-width: 1px; fill: none; fill-opacity: 1;"/></g><g class="arrow-line"><path class="connection real" stroke-dasharray="" d="  M533.6,315.2 L699.4,391.2" style="stroke: rgb(224, 224, 224); stroke-width: 1px; fill: none; fill-opacity: 1;"/></g><g/></g><g/><g><g><ellipse cx="322.65234703150986" cy="245.18784373008054" rx="77.07463914933368" ry="43.84062043356597" style="stroke: rgb(224, 224, 224); stroke-width: 1px; fill: rgb(208, 2, 27); fill-opacity: 1;"/></g></g><g/></svg>
        <svg xmlns="http://www.w3.org/2000/svg" xmlns:xlink="http://www.w3.org/1999/xlink" width="660" height="505.79998779296875" style="width:660px;height:505.79998779296875px;font-family:Asana-Math, Asana;background:transparent;"><g><g></g><g><g><text x="274.26666259765625" y="240.16668701171875" style="white-space:pre;stroke:none;fill:rgb(224,224,224);fill-opacity:1;font-size:15px;font-family:Arial, Helvetica, sans-serif;font-weight:400;font-style:normal;dominant-baseline:text-before-edge;text-decoration:none;">Algorithm core</text></g></g></g><g transform="matrix(0.5000000000000001,0.8660254037844386,-0.8660254037844386,0.5000000000000001,364.72456957048314,-302.92149747179786)"><g><g><text x="431.76666259765625" y="155.89999389648438" style="white-space:pre;stroke:none;fill:rgb(224,224,224);fill-opacity:1;font-size:15px;font-family:Arial, Helvetica, sans-serif;font-weight:400;font-style:normal;dominant-baseline:text-before-edge;text-decoration:none;">port</text></g></g></g><g transform="matrix(0.5000000000000001,-0.8660254037844386,0.8660254037844386,0.5000000000000001,-30.7328416944149,258.4024575055522)"><g><g><text x="195.48333740234375" y="147.316650390625" style="white-space:pre;stroke:none;fill:rgb(224,224,224);fill-opacity:1;font-size:15px;font-family:Arial, Helvetica, sans-serif;font-weight:400;font-style:normal;dominant-baseline:text-before-edge;text-decoration:none;">port</text></g></g></g><g transform="matrix(-0.5000000000000004,-0.8660254037844385,0.8660254037844385,-0.5000000000000004,20.876360635069574,634.9529968464196)"><g><g><text x="180.79998779296875" y="302.95001220703125" style="white-space:pre;stroke:none;fill:rgb(224,224,224);fill-opacity:1;font-size:15px;font-family:Arial, Helvetica, sans-serif;font-weight:400;font-style:normal;dominant-baseline:text-before-edge;text-decoration:none;">port</text></g></g></g><g transform="matrix(-0.4999999999999998,0.8660254037844387,-0.8660254037844387,-0.4999999999999998,948.5928828025704,72.32964376257269)"><g><g><text x="440.48333740234375" y="301.5" style="white-space:pre;stroke:none;fill:rgb(224,224,224);fill-opacity:1;font-size:15px;font-family:Arial, Helvetica, sans-serif;font-weight:400;font-style:normal;dominant-baseline:text-before-edge;text-decoration:none;">port</text></g></g></g><g><g><g><text x="300.83331298828125" y="97.83331298828125" style="white-space:pre;stroke:none;fill:rgb(224,224,224);fill-opacity:1;font-size:15px;font-family:Arial, Helvetica, sans-serif;font-weight:400;font-style:normal;dominant-baseline:text-before-edge;text-decoration:none;">Agent</text></g></g></g><g><g><g><text x="295.75" y="35.76666259765625" style="white-space:pre;stroke:none;fill:rgb(224,224,224);fill-opacity:1;font-size:15px;font-family:Arial, Helvetica, sans-serif;font-weight:400;font-style:normal;dominant-baseline:text-before-edge;text-decoration:none;">Adapters</text></g></g></g></svg>
</svg>
